<svg width="400" height="293" viewBox="0 0 400 293" fill="none" xmlns="http://www.w3.org/2000/svg">
<path d="M79.6973 293C123.713 293 159.395 290.147 159.395 286.627C159.395 283.108 123.713 280.255 79.6973 280.255C35.6817 280.255 0 283.108 0 286.627C0 290.147 35.6817 293 79.6973 293Z" fill="#E6E6E6"/>
<path d="M60.9192 65.0116C74.7889 58.8007 92.0639 62.7358 108.935 65.467C109.092 62.1596 110.995 58.1343 109.001 55.8268C106.58 53.0235 106.803 50.078 108.26 47.1155C111.986 39.54 106.647 31.4792 101.256 24.7768C100.041 23.2695 98.5058 22.0852 96.7743 21.3201C95.0429 20.555 93.1644 20.2307 91.2915 20.3734L81.3054 21.1244C78.8754 21.3071 76.5563 22.2668 74.6586 23.8751C72.7608 25.4834 71.3748 27.6635 70.686 30.1237C68.3015 33.538 67.0253 36.9428 67.8288 40.3298C64.2572 42.8995 63.6572 46.0014 65.2621 49.4982C66.623 51.6999 66.6085 53.8431 65.2002 55.9269C63.3506 58.5837 61.934 61.5461 61.0085 64.6926L60.9192 65.0116Z" fill="#2F2E41"/>
<path d="M390.521 253.294H107.839C105.325 253.294 102.914 252.242 101.137 250.371C99.3593 248.5 98.3607 245.961 98.3607 243.315C200.833 230.776 301.379 230.776 400 243.315C400 245.961 399.001 248.5 397.224 250.371C395.446 252.242 393.035 253.294 390.521 253.294Z" fill="#2F2E41"/>
<path d="M400 243.902L98.3607 243.315L133.32 181.385L133.487 181.092V44.6067C133.487 42.9501 133.797 41.3096 134.399 39.7791C135.001 38.2485 135.883 36.8578 136.996 35.6864C138.109 34.515 139.43 33.5858 140.883 32.9519C142.337 32.318 143.895 31.9918 145.469 31.9919H351.219C352.793 31.9918 354.351 32.318 355.805 32.9519C357.258 33.5858 358.579 34.515 359.692 35.6864C360.805 36.8578 361.687 38.2485 362.289 39.7791C362.891 41.3096 363.201 42.9501 363.201 44.6067V182.031L400 243.902Z" fill="#3F3D56"/>
<path d="M145.196 40.797C144.161 40.7983 143.169 41.2316 142.437 42.0019C141.705 42.7722 141.294 43.8167 141.293 44.9061V169.352C141.294 170.441 141.705 171.486 142.437 172.256C143.169 173.026 144.161 173.459 145.196 173.461H353.165C354.2 173.459 355.192 173.026 355.923 172.256C356.655 171.485 357.067 170.441 357.068 169.352V44.9061C357.067 43.8167 356.655 42.7723 355.924 42.002C355.192 41.2316 354.2 40.7983 353.165 40.797H145.196Z" fill="white"/>
<path d="M146.067 189.897C145.747 189.898 145.434 189.994 145.165 190.176C144.896 190.358 144.682 190.616 144.547 190.922L133.775 215.576C133.658 215.845 133.607 216.14 133.626 216.434C133.646 216.729 133.735 217.014 133.887 217.262C134.038 217.511 134.246 217.716 134.492 217.857C134.738 217.999 135.014 218.073 135.295 218.073H361.823C362.108 218.073 362.389 217.997 362.638 217.85C362.887 217.704 363.096 217.493 363.246 217.238C363.396 216.983 363.481 216.691 363.494 216.391C363.507 216.091 363.446 215.793 363.319 215.525L351.61 190.87C351.472 190.577 351.259 190.331 350.994 190.159C350.73 189.987 350.425 189.896 350.114 189.897H146.067Z" fill="#2F2E41"/>
<path d="M248.344 38.7425C249.73 38.7425 250.853 37.5598 250.853 36.101C250.853 34.6421 249.73 33.4594 248.344 33.4594C246.958 33.4594 245.835 34.6421 245.835 36.101C245.835 37.5598 246.958 38.7425 248.344 38.7425Z" fill="white"/>
<path d="M226.078 222.769C225.71 222.77 225.353 222.898 225.061 223.133C224.769 223.369 224.559 223.699 224.463 224.072L221.761 234.639C221.694 234.9 221.685 235.173 221.735 235.438C221.785 235.704 221.892 235.953 222.048 236.168C222.205 236.382 222.406 236.556 222.636 236.676C222.866 236.795 223.119 236.858 223.376 236.858H274.763C275.029 236.858 275.292 236.79 275.529 236.662C275.766 236.533 275.971 236.347 276.125 236.118C276.28 235.889 276.38 235.625 276.418 235.347C276.456 235.069 276.43 234.786 276.343 234.52L272.869 223.954C272.755 223.608 272.542 223.308 272.258 223.096C271.975 222.884 271.636 222.77 271.288 222.769H226.078Z" fill="#2F2E41"/>
<path d="M363.201 179.037V181.385H133.32L133.493 181.092V179.037H363.201Z" fill="#2F2E41"/>
<path d="M356.789 82.1811C378.344 82.1811 395.818 63.7842 395.818 41.0905C395.818 18.3969 378.344 0 356.789 0C335.234 0 317.76 18.3969 317.76 41.0905C317.76 63.7842 335.234 82.1811 356.789 82.1811Z" fill="#114B5F"/>
<path d="M372.958 58.9943H340.62C340.029 58.9937 339.462 58.7461 339.044 58.3059C338.625 57.8657 338.39 57.2688 338.39 56.6463V36.101C338.39 35.4784 338.626 34.8816 339.044 34.4414C339.462 34.0012 340.029 33.7536 340.62 33.7529H372.958C373.55 33.7536 374.117 34.0012 374.535 34.4414C374.953 34.8816 375.188 35.4784 375.189 36.101V56.6462C375.188 57.2688 374.953 57.8657 374.535 58.3059C374.117 58.7461 373.55 58.9937 372.958 58.9943ZM340.62 36.101V56.6463H372.96L372.958 36.101L340.62 36.101Z" fill="white"/>
<path d="M366.825 36.101H346.753V26.7088C346.753 19.9061 350.974 14.9687 356.789 14.9687C362.604 14.9687 366.825 19.9061 366.825 26.7088L366.825 36.101ZM348.983 33.7529H364.595V26.7088C364.595 21.179 361.385 17.3167 356.789 17.3167C352.193 17.3167 348.983 21.179 348.983 26.7088L348.983 33.7529Z" fill="white"/>
<path d="M356.789 48.1346C358.021 48.1346 359.019 47.0834 359.019 45.7866C359.019 44.4898 358.021 43.4386 356.789 43.4386C355.557 43.4386 354.559 44.4898 354.559 45.7866C354.559 47.0834 355.557 48.1346 356.789 48.1346Z" fill="white"/>
<path d="M329.543 131.25H168.817C168.028 131.249 167.272 130.919 166.714 130.331C166.156 129.744 165.842 128.947 165.841 128.116V86.1413C165.842 85.3105 166.156 84.514 166.714 83.9266C167.272 83.3391 168.028 83.0087 168.817 83.0077H329.543C330.333 83.0087 331.089 83.3391 331.647 83.9266C332.205 84.514 332.519 85.3105 332.52 86.1413V128.116C332.519 128.947 332.205 129.744 331.647 130.331C331.089 130.919 330.333 131.249 329.543 131.25ZM168.817 84.2612C168.344 84.2617 167.89 84.46 167.555 84.8124C167.22 85.1649 167.032 85.6428 167.031 86.1413V128.116C167.032 128.615 167.22 129.093 167.555 129.445C167.89 129.798 168.344 129.996 168.817 129.997H329.543C330.017 129.996 330.471 129.798 330.806 129.445C331.14 129.093 331.329 128.615 331.329 128.116V86.1413C331.329 85.6428 331.14 85.1649 330.806 84.8124C330.471 84.4599 330.017 84.2617 329.543 84.2611L168.817 84.2612Z" fill="#E6E6E6"/>
<path d="M193.791 118.283C200.487 118.283 205.915 112.568 205.915 105.518C205.915 98.4686 200.487 92.7536 193.791 92.7536C187.095 92.7536 181.666 98.4686 181.666 105.518C181.666 112.568 187.095 118.283 193.791 118.283Z" fill="#E6E6E6"/>
<path d="M221.792 97.0085C221.527 97.0081 221.263 97.0628 221.018 97.1695C220.772 97.2762 220.549 97.4328 220.361 97.6304C220.173 97.828 220.024 98.0627 219.922 98.3211C219.821 98.5794 219.768 98.8563 219.768 99.136C219.768 99.4156 219.821 99.6925 219.922 99.9509C220.024 100.209 220.173 100.444 220.361 100.641C220.549 100.839 220.772 100.996 221.018 101.102C221.263 101.209 221.527 101.264 221.792 101.263H317.055C317.591 101.263 318.105 101.039 318.483 100.64C318.862 100.241 319.075 99.7002 319.075 99.136C319.075 98.5717 318.862 98.0306 318.483 97.6316C318.105 97.2327 317.591 97.0085 317.055 97.0085H221.792Z" fill="#E6E6E6"/>
<path d="M221.792 109.773C221.256 109.773 220.742 109.997 220.363 110.396C219.984 110.795 219.771 111.336 219.771 111.901C219.771 112.465 219.984 113.006 220.363 113.405C220.742 113.804 221.256 114.028 221.792 114.028H262.784C263.32 114.028 263.834 113.804 264.213 113.405C264.592 113.006 264.805 112.465 264.805 111.901C264.805 111.336 264.592 110.795 264.213 110.396C263.834 109.997 263.32 109.773 262.784 109.773H221.792Z" fill="#E6E6E6"/>
<path d="M132.924 110.634L103.213 127.264L102.836 113.406C112.534 111.701 121.76 108.734 130.291 103.903L133.399 95.8198C133.737 94.9391 134.288 94.1662 134.996 93.577C135.704 92.9878 136.545 92.6026 137.437 92.4592C138.329 92.3157 139.242 92.419 140.084 92.7589C140.927 93.0987 141.672 93.6635 142.244 94.3977C143.083 95.4719 143.502 96.8414 143.416 98.2286C143.331 99.6159 142.749 100.917 141.786 101.869L132.924 110.634Z" fill="#FFB8B8"/>
<path d="M60.327 206.651C60.1102 205.814 60.0642 204.938 60.1919 204.081C60.3197 203.224 60.6183 202.406 61.0681 201.679L67.5948 191.133C69.1386 188.639 71.5073 186.837 74.2415 186.078C76.9756 185.318 79.8803 185.655 82.3918 187.023C79.6488 191.939 80.0312 196.251 83.3392 199.999C78.204 202.638 73.4578 206.045 69.2478 210.113C68.4792 210.664 67.5966 211.015 66.6734 211.134C65.7502 211.254 64.8132 211.14 63.9404 210.801C63.0676 210.463 62.2843 209.909 61.6558 209.187C61.0272 208.465 60.5716 207.596 60.327 206.651Z" fill="#2F2E41"/>
<path d="M134.277 192.863C133.29 194.596 131.896 196.032 130.229 197.035C128.562 198.037 126.678 198.572 124.759 198.587L81.3991 198.933L79.5186 187.45L98.6994 181.511L82.5273 168.444L100.204 146.666L132.31 178.171C134.186 180.012 135.405 182.476 135.764 185.15C136.122 187.824 135.597 190.547 134.277 192.863Z" fill="#2F2E41"/>
<path d="M74.6293 271.393H64.4748C55.3574 205.597 46.0769 139.616 73.5011 114.989L105.845 120.533L101.708 149.438L83.6556 171.216L74.6293 271.393Z" fill="#2F2E41"/>
<path d="M83.5557 286.298C82.7608 286.526 81.9289 286.575 81.1149 286.44C80.3009 286.306 79.5232 285.992 78.8328 285.518L67.807 283.958C65.4378 282.333 63.7264 279.839 63.0049 276.961C62.2834 274.082 62.6032 271.024 63.9024 268.38C68.5716 271.267 72.6676 270.864 76.227 267.382C78.7419 272.728 82.8857 272.402 86.8431 276.906C87.3671 277.715 87.6999 278.644 87.8137 279.616C87.9276 280.588 87.8191 281.575 87.4975 282.494C87.1759 283.413 86.6503 284.237 85.9647 284.899C85.279 285.561 84.4531 286.04 83.5557 286.298Z" fill="#2F2E41"/>
<path d="M98.6994 71.0379L79.8947 66.2864C83.0178 59.5558 83.275 52.0667 81.7751 44.1126L94.5623 43.7167C94.963 53.6078 96.1752 62.8486 98.6994 71.0379Z" fill="#FFB8B8"/>
<path d="M103.868 132.455C90.1785 142.276 80.5061 132.791 73.125 118.157C74.1506 109.202 72.4899 98.4864 69.4141 86.8426C68.0462 81.7069 68.5569 76.2179 70.8454 71.4592C73.1338 66.7005 77.0337 63.0181 81.7751 61.1389L97.9472 68.2662C111.679 80.0505 114.382 92.8153 109.23 106.278L103.868 132.455Z" fill="#114B5F"/>
<path d="M64.4748 80.9368L49.431 89.252L76.1337 105.882L79.8492 115.531C80.0972 116.175 80.218 116.866 80.2043 117.561C80.1906 118.255 80.0426 118.94 79.7693 119.572C79.4961 120.205 79.1033 120.772 78.615 121.24C78.1267 121.708 77.5531 122.066 76.9291 122.292C76.2197 122.55 75.4634 122.631 74.7193 122.529C73.9752 122.428 73.2636 122.146 72.6401 121.707C72.0166 121.267 71.4982 120.682 71.1255 119.996C70.7529 119.31 70.536 118.543 70.4919 117.755L70.1162 111.03L36.1773 99.2384C35.0338 98.8411 33.9912 98.1751 33.1284 97.2907C32.2656 96.4064 31.6053 95.3269 31.1974 94.1341C30.6029 92.3955 30.5726 90.4983 31.1114 88.7396C31.6501 86.9809 32.7274 85.4598 34.1748 84.4145L61.466 64.7025L64.4748 80.9368Z" fill="#FFB8B8"/>
<path d="M79.5186 82.5207C73.2444 79.6259 67.5391 82.7705 60.3378 85.2924L59.2095 64.3066C66.3601 60.2941 73.1777 59.2123 79.5186 62.3268L79.5186 82.5207Z" fill="#114B5F"/>
<path d="M87.0239 54.1117C93.6547 54.1117 99.03 48.4525 99.03 41.4714C99.03 34.4904 93.6547 28.8312 87.0239 28.8312C80.3932 28.8312 75.0178 34.4904 75.0178 41.4714C75.0178 48.4525 80.3932 54.1117 87.0239 54.1117Z" fill="#FFB8B8"/>
<path d="M101.387 39.8766C89.5 41.1023 80.4422 39.0555 74.6532 33.2277V28.5344H100.378L101.387 39.8766Z" fill="#2F2E41"/>
</svg>
